<mxfile host="app.diagrams.net" agent="Mozilla/5.0 (Windows NT 10.0; Win64; x64) AppleWebKit/537.36 (KHTML, like Gecko) Chrome/130.0.0.0 Safari/537.36" version="24.8.4">
  <diagram name="PÃ¡gina-1" id="rjEv8GBoKU_cD55AWzVr">
    <mxGraphModel dx="2261" dy="706" grid="1" gridSize="10" guides="1" tooltips="1" connect="1" arrows="1" fold="1" page="1" pageScale="1" pageWidth="827" pageHeight="1169" math="0" shadow="0">
      <root>
        <mxCell id="0" />
        <mxCell id="1" parent="0" />
        <mxCell id="SAvaUUXx-h0IU91rrAJy-1" value="Elastic Beanstalk" style="outlineConnect=0;dashed=0;verticalLabelPosition=bottom;verticalAlign=top;align=center;html=1;shape=mxgraph.aws3.elastic_beanstalk;fillColor=#F58534;gradientColor=none;" vertex="1" parent="1">
          <mxGeometry x="60" y="330" width="160" height="243" as="geometry" />
        </mxCell>
        <mxCell id="SAvaUUXx-h0IU91rrAJy-2" value="Auto Scaling" style="outlineConnect=0;dashed=0;verticalLabelPosition=bottom;verticalAlign=top;align=center;html=1;shape=mxgraph.aws3.auto_scaling;fillColor=#F58534;gradientColor=none;" vertex="1" parent="1">
          <mxGeometry x="-250" y="257" width="109.5" height="100" as="geometry" />
        </mxCell>
        <mxCell id="SAvaUUXx-h0IU91rrAJy-3" value="Elastic IP" style="outlineConnect=0;dashed=0;verticalLabelPosition=bottom;verticalAlign=top;align=center;html=1;shape=mxgraph.aws3.elastic_ip;fillColor=#F58534;gradientColor=none;" vertex="1" parent="1">
          <mxGeometry x="-478" y="585" width="130" height="40" as="geometry" />
        </mxCell>
        <mxCell id="SAvaUUXx-h0IU91rrAJy-5" value="Security Group" style="rounded=1;arcSize=10;dashed=1;strokeColor=#ff0000;fillColor=none;gradientColor=none;dashPattern=8 4;strokeWidth=2;" vertex="1" parent="1">
          <mxGeometry x="-470" y="243" width="150" height="129" as="geometry" />
        </mxCell>
        <mxCell id="SAvaUUXx-h0IU91rrAJy-9" value="EC2" style="sketch=0;points=[[0,0,0],[0.25,0,0],[0.5,0,0],[0.75,0,0],[1,0,0],[0,1,0],[0.25,1,0],[0.5,1,0],[0.75,1,0],[1,1,0],[0,0.25,0],[0,0.5,0],[0,0.75,0],[1,0.25,0],[1,0.5,0],[1,0.75,0]];outlineConnect=0;fontColor=#232F3E;fillColor=#ED7100;strokeColor=#ffffff;dashed=0;verticalLabelPosition=bottom;verticalAlign=top;align=center;html=1;fontSize=12;fontStyle=0;aspect=fixed;shape=mxgraph.aws4.resourceIcon;resIcon=mxgraph.aws4.ec2;" vertex="1" parent="1">
          <mxGeometry x="-560" y="395" width="130" height="130" as="geometry" />
        </mxCell>
        <mxCell id="SAvaUUXx-h0IU91rrAJy-11" value="Elastic Load Balancer" style="outlineConnect=0;dashed=0;verticalLabelPosition=bottom;verticalAlign=top;align=center;html=1;shape=mxgraph.aws3.elastic_load_balancing;fillColor=#F58536;gradientColor=none;" vertex="1" parent="1">
          <mxGeometry x="-231.5" y="465" width="91" height="120" as="geometry" />
        </mxCell>
        <mxCell id="SAvaUUXx-h0IU91rrAJy-12" value="EBS" style="outlineConnect=0;dashed=0;verticalLabelPosition=bottom;verticalAlign=top;align=center;html=1;shape=mxgraph.aws3.volume;fillColor=#E05243;gradientColor=none;" vertex="1" parent="1">
          <mxGeometry x="-365" y="395" width="80" height="130" as="geometry" />
        </mxCell>
        <mxCell id="SAvaUUXx-h0IU91rrAJy-16" value="" style="rounded=1;arcSize=10;dashed=0;fillColor=none;gradientColor=none;strokeWidth=2;glass=0;" vertex="1" parent="1">
          <mxGeometry x="-590" y="170" width="490" height="540" as="geometry" />
        </mxCell>
        <mxCell id="SAvaUUXx-h0IU91rrAJy-18" value="" style="line;strokeWidth=1;fillColor=none;align=left;verticalAlign=middle;spacingTop=-1;spacingLeft=3;spacingRight=3;rotatable=0;labelPosition=right;points=[];portConstraint=eastwest;strokeColor=inherit;textShadow=0;fontSize=50;" vertex="1" parent="1">
          <mxGeometry x="-20" y="430" width="40" height="8" as="geometry" />
        </mxCell>
        <mxCell id="SAvaUUXx-h0IU91rrAJy-19" value="" style="line;strokeWidth=1;fillColor=none;align=left;verticalAlign=middle;spacingTop=-1;spacingLeft=3;spacingRight=3;rotatable=0;labelPosition=right;points=[];portConstraint=eastwest;strokeColor=inherit;fontSize=56;" vertex="1" parent="1">
          <mxGeometry x="-20" y="438" width="40" height="8" as="geometry" />
        </mxCell>
      </root>
    </mxGraphModel>
  </diagram>
</mxfile>
